# xmcd CD database file
#
# Track frame offsets:
#	150
#	12153
#	28656
#	44019
#	63721
#	76058
#	94872
#	111435
#	127222
#	144836
#
# Disc length: 2171 seconds
#
# Revision: 0
# Processed by: cddbd v1.4PL0 Copyright (c) Steve Scherf et al.
# Submitted via: CDex 1.40Release
#
DISCID=8908790a
DTITLE=Lone Justice - Lone Justice
DYEAR=1985
DGENRE=Country
TTITLE0=East Of Eden
TTITLE1=After The Flood
TTITLE2=Ways To Be Wicked
TTITLE3=Don't Toss Us Away
TTITLE4=Working Late
TTITLE5=Sweet, Sweet Baby
TTITLE6=Pass It On
TTITLE7=Wait 'Til We Get Home
TTITLE8=Soap, Soup And Salvation
TTITLE9=You Are The Light
EXTD=YEAR: 1985 ID3G: 2
EXTT0=
EXTT1=
EXTT2=
EXTT3=
EXTT4=
EXTT5=
EXTT6=
EXTT7=
EXTT8=
EXTT9=
PLAYORDER=
